<?xml version="1.0" encoding="UTF-8"?>
<svg width="17px" height="17px" viewBox="0 0 17 17" version="1.1" xmlns="http://www.w3.org/2000/svg" xmlns:xlink="http://www.w3.org/1999/xlink">
    <title>FC84EA03-D279-4DA1-AE59-A5277BFEBC6A</title>
    <g id="Page-1" stroke="none" stroke-width="1" fill="none" fill-rule="evenodd">
        <g id="04c-Items-bulk-selected" transform="translate(-433.000000, -240.000000)" fill="#262262">
            <g id="Bulk-select-tools" transform="translate(288.000000, 224.000000)">
                <g id="Delete" transform="translate(123.000000, 7.000000)">
                    <g id="ico-ui-function" transform="translate(22.000000, 9.000000)">
                        <path d="M10.8013808,6.89232227 C11.1261629,6.89232227 11.3885697,7.15795534 11.3885697,7.48596379 L11.3885697,12.286717 C11.3885697,12.61365 11.1261629,12.879283 10.8013808,12.879283 C10.4776741,12.879283 10.2152674,12.6179517 10.2152674,12.2899433 L10.2152674,7.48596379 C10.2152674,7.15795534 10.4776741,6.89232227 10.8013808,6.89232227 L10.8013808,6.89232227 Z M8.4547761,6.89232227 C8.77955824,6.89232227 9.041965,7.15795534 9.041965,7.48596379 L9.041965,12.286717 C9.041965,12.61365 8.77955824,12.879283 8.4547761,12.879283 C8.1310694,12.879283 7.86758721,12.61365 7.86758721,12.286717 L7.86758721,7.48596379 C7.86758721,7.15795534 8.1310694,6.89232227 8.4547761,6.89232227 L8.4547761,6.89232227 Z M6.10817139,6.89232227 C6.43187809,6.89232227 6.69428485,7.15795534 6.69428485,7.48596379 L6.69428485,12.286717 C6.69428485,12.61365 6.43187809,12.879283 6.10817139,12.879283 C5.78338926,12.879283 5.5209825,12.61365 5.5209825,12.286717 L5.5209825,7.48596379 C5.5209825,7.15795534 5.78338926,6.89232227 6.10817139,6.89232227 L6.10817139,6.89232227 Z M10.2152674,3.37564152 L10.2152674,2.18835848 L6.69428485,2.18835848 L6.69428485,3.37564152 L3.17330235,3.37564152 L3.17330235,4.41989137 L13.7362498,4.41989137 L13.7362498,3.37564152 L10.2152674,3.37564152 Z M4.34768014,14.0676415 L12.5629475,14.0676415 L12.5629475,5.55985516 L4.34768014,5.55985516 L4.34768014,14.0676415 Z M13.7362498,5.75235848 L13.7362498,14.0676415 C13.7362498,14.7236584 13.20821,15.256 12.5629475,15.256 L4.34768014,15.256 C3.70026675,15.256 3.17330235,14.7236584 3.17330235,14.0676415 L3.17330235,5.75235848 L2,5.75235848 L2,3.37564152 C2,2.72070006 2.52696439,2.18835848 3.17330235,2.18835848 L5.5209825,2.18835848 C5.5209825,1.53234158 6.04794689,1 6.69428485,1 L10.2152674,1 C10.8616053,1 11.3885697,1.53234158 11.3885697,2.18835848 L13.7362498,2.18835848 C14.3825878,2.18835848 14.9095522,2.72070006 14.9095522,3.37564152 L14.9095522,5.75235848 L13.7362498,5.75235848 Z" id="Fill-3"></path>
                    </g>
                </g>
            </g>
        </g>
    </g>
</svg>