<?xml version="1.0" encoding="UTF-8"?>
<svg width="17px" height="17px" viewBox="0 0 17 17" version="1.1" xmlns="http://www.w3.org/2000/svg" xmlns:xlink="http://www.w3.org/1999/xlink">
    <title>544AA5AC-F0A0-4FB7-ABA3-D17C2FBAD167</title>
    <g id="Page-1" stroke="none" stroke-width="1" fill="none" fill-rule="evenodd">
        <g id="04d-Items-bulk-add-tag" transform="translate(-498.000000, -240.000000)" fill="#262262">
            <g id="Page" transform="translate(10.000000, 10.000000)">
                <g id="Bulk-select-tools" transform="translate(278.000000, 214.000000)">
                    <g id="Clone" transform="translate(188.000000, 7.000000)">
                        <g id="ico-ui-function" transform="translate(22.000000, 9.000000)">
                            <path d="M13.7222723,13.7222723 L7.40929584,13.7222723 L7.40929584,11.9852447 L7.40929584,10.8684318 L7.40929584,9.59070416 L7.40929584,7.40929584 L9.59070416,7.40929584 L10.8684318,7.40929584 L11.9852447,7.40929584 L13.7222723,7.40929584 L13.7222723,13.7222723 Z M6.13156816,6.77096483 L6.13156816,9.59070416 L3.27772768,9.59070416 L3.27772768,3.27772768 L9.59070416,3.27772768 L9.59070416,6.13156816 L6.77096483,6.13156816 C6.418231,6.13156816 6.13156816,6.418231 6.13156816,6.77096483 L6.13156816,6.77096483 Z M14.361669,6.13156816 L10.8684318,6.13156816 L10.8684318,2.63939667 C10.8684318,2.28666284 10.5828347,2 10.2301008,2 L2.63939667,2 C2.28666284,2 2,2.28666284 2,2.63939667 L2,10.2301008 C2,10.5828347 2.28666284,10.8684318 2.63939667,10.8684318 L6.13156816,10.8684318 L6.13156816,14.361669 C6.13156816,14.7144028 6.418231,15 6.77096483,15 L14.361669,15 C14.7144028,15 15,14.7144028 15,14.361669 L15,6.77096483 C15,6.418231 14.7144028,6.13156816 14.361669,6.13156816 L14.361669,6.13156816 Z" id="Fill-1"></path>
                        </g>
                    </g>
                </g>
            </g>
        </g>
    </g>
</svg>