<?xml version="1.0" encoding="UTF-8"?>
<svg width="12px" height="11px" viewBox="0 0 12 11" version="1.1" xmlns="http://www.w3.org/2000/svg" xmlns:xlink="http://www.w3.org/1999/xlink">
    <title>6755C9AA-6951-4E97-A74A-1A3DA39D5F41</title>
    <g id="Page-1" stroke="none" stroke-width="1" fill="none" fill-rule="evenodd" opacity="0.5" stroke-linecap="round" stroke-linejoin="round">
        <g id="04c-Items-bulk-selected" transform="translate(-39.000000, -564.000000)" stroke="#FFFFFF" stroke-width="0.75">
            <g id="Nav" transform="translate(10.000000, 10.000000)">
                <g id="Additonal" transform="translate(28.000000, 446.000000)">
                    <g id="ico-analytics" transform="translate(1.000000, 108.000000)">
                        <path d="M0,2.96153846 L0,10.7884615 C0,10.905291 0.0959389822,11 0.214285714,11 L3.85714286,11 L3.85714286,2.96153846 C3.85714286,2.72787953 3.66526489,2.53846154 3.42857143,2.53846154 L0.428571429,2.53846154 C0.191877964,2.53846154 0,2.72787953 0,2.96153846 Z" id="Path"></path>
                        <path d="M7.71428571,0 L4.28571429,0 C4.04902082,0 3.85714286,0.18941799 3.85714286,0.423076923 L3.85714286,11 L8.14285714,11 L8.14285714,0.423076923 C8.14285714,0.18941799 7.95097918,0 7.71428571,0 Z" id="Path"></path>
                        <path d="M11.5714286,4.23076923 L8.57142857,4.23076923 C8.33473511,4.23076923 8.14285714,4.42018722 8.14285714,4.65384615 L8.14285714,11 L11.7857143,11 C11.904061,11 12,10.905291 12,10.7884615 L12,4.65384615 C12,4.42018722 11.808122,4.23076923 11.5714286,4.23076923 Z" id="Path"></path>
                    </g>
                </g>
            </g>
        </g>
    </g>
</svg>