<?xml version="1.0" encoding="UTF-8"?>
<svg width="12px" height="14px" viewBox="0 0 12 14" version="1.1" xmlns="http://www.w3.org/2000/svg" xmlns:xlink="http://www.w3.org/1999/xlink">
    <title>4B8ED1D1-A101-4CA1-81E6-1D41653210A1</title>
    <g id="Page-1" stroke="none" stroke-width="1" fill="none" fill-rule="evenodd" stroke-linecap="round" stroke-linejoin="round">
        <g id="04c-Items-bulk-selected" transform="translate(-39.000000, -361.000000)" stroke="#FFFFFF" stroke-width="0.75">
            <g id="Nav" transform="translate(10.000000, 10.000000)">
                <g id="Learnosity" transform="translate(15.000000, 313.000000)">
                    <g id="ico-questions" transform="translate(14.000000, 38.000000)">
                        <polyline id="Path" points="1.95 2.32490975 0 3.48736462 0 5.76173285"></polyline>
                        <polyline id="Path" points="0 8.23826715 0 10.5126354 1.95 11.6245487"></polyline>
                        <polyline id="Path" points="4.05 12.8375451 6 14 7.95 12.8375451"></polyline>
                        <polyline id="Path" points="10.05 11.6245487 12 10.5126354 12 8.23826715"></polyline>
                        <polyline id="Path" points="12 5.76173285 12 3.48736462 10.05 2.32490975"></polyline>
                        <polyline id="Path" points="7.95 1.11191336 6 0 4.05 1.11191336"></polyline>
                        <line x1="6" y1="14" x2="6" y2="11.7256318" id="Path"></line>
                        <polyline id="Path" points="6 9.14801444 6 6.87364621 7.95 5.76173285"></polyline>
                        <line x1="10.05" y1="4.59927798" x2="12" y2="3.48736462" id="Path"></line>
                        <line x1="6" y1="6.87364621" x2="4.05" y2="5.76173285" id="Path"></line>
                        <line x1="1.95" y1="4.59927798" x2="0" y2="3.48736462" id="Path"></line>
                    </g>
                </g>
            </g>
        </g>
    </g>
</svg>