<?xml version="1.0" encoding="UTF-8"?>
<svg width="20.1525433px" height="20.1525433px" viewBox="0 0 20.1525433 20.1525433" version="1.1" xmlns="http://www.w3.org/2000/svg" xmlns:xlink="http://www.w3.org/1999/xlink">
    <title>49301BE9-9F92-495E-96A4-2D8EC6AA57E1</title>
    <g id="Page-1" stroke="none" stroke-width="1" fill="none" fill-rule="evenodd">
        <g id="04d-Items-bulk-add-tag" transform="translate(-1079.423728, -758.673728)" stroke="#B3C4CE">
            <g id="Page" transform="translate(10.000000, 10.000000)">
                <g id="Items" transform="translate(278.000000, 270.000000)">
                    <g id="item/standard" transform="translate(0.000000, 450.000000)">
                        <g id="Tag/with-icon" transform="translate(784.000000, 25.000000)">
                            <g id="ico-tag" transform="translate(7.423728, 3.673728)">
                                <path d="M5.30875309,5.22614402 L8.80293605,2.36333343 C9.53926204,1.76005597 10.5987505,1.75934249 11.3358884,2.3616277 L14.8417054,5.22608757 C15.3065967,5.60593127 15.5762716,6.17451643 15.5762716,6.77485398 L15.5762716,16.8262716 C15.5762716,17.9308411 14.6808411,18.8262716 13.5762716,18.8262716 L6.57627163,18.8262716 C5.47170213,18.8262716 4.57627163,17.9308411 4.57627163,16.8262716 L4.57627163,6.7732047 C4.57627163,6.17381048 4.84510347,5.60601567 5.30875309,5.22614402 Z" id="Rectangle" stroke-linejoin="round" transform="translate(10.076272, 10.076272) rotate(45.000000) translate(-10.076272, -10.076272) "></path>
                                <circle id="Oval" transform="translate(12.374369, 7.778175) rotate(45.000000) translate(-12.374369, -7.778175) " cx="12.3743687" cy="7.77817459" r="1.5"></circle>
                                <line x1="4.71751442" y1="13.4350288" x2="8.71751442" y2="13.4350288" id="Path-4" stroke-linecap="round" stroke-linejoin="round" transform="translate(6.717514, 13.435029) rotate(45.000000) translate(-6.717514, -13.435029) "></line>
                            </g>
                        </g>
                    </g>
                </g>
            </g>
        </g>
    </g>
</svg>