<?xml version="1.0" encoding="UTF-8"?>
<svg width="16.9998665px" height="17px" viewBox="0 0 16.9998665 17" version="1.1" xmlns="http://www.w3.org/2000/svg" xmlns:xlink="http://www.w3.org/1999/xlink">
    <title>5F42863E-D58D-445E-BC88-785431D44AA1</title>
    <g id="Page-1" stroke="none" stroke-width="1" fill="none" fill-rule="evenodd">
        <g id="04d-Items-bulk-add-tag" transform="translate(-901.000000, -582.000000)" fill="#B3C4CE" fill-rule="nonzero">
            <g id="Page" transform="translate(10.000000, 10.000000)">
                <g id="Items" transform="translate(278.000000, 270.000000)">
                    <g id="item/standard" transform="translate(0.000000, 270.000000)">
                        <g id="Information" transform="translate(477.000000, 27.000000)">
                            <g id="When" transform="translate(136.000000, 0.000000)">
                                <path d="M8.50091411,5 C8.8620622,5 9.15483058,5.29273531 9.15483058,5.65384263 C9.15483058,6.01494994 8.8620622,6.30768525 8.50091411,6.30768525 C5.1276183,6.30768248 2.20745374,8.65158715 1.47801317,11.9446999 C0.748572603,15.2378126 2.40582682,18.5954089 5.46365574,20.01961 C8.52148466,21.4438111 12.158375,20.5519924 14.2102588,17.8748151 C14.430198,17.5882765 14.8408056,17.5342668 15.1273766,17.7541812 C15.4139476,17.9740955 15.4679634,18.3846568 15.2480242,18.6711955 C13.6448132,20.7764976 11.1473282,22.0086414 8.50091411,21.9999544 C3.80598889,21.9999544 0,18.1943492 0,13.4999541 C0,8.80555909 3.80598889,5 8.50091411,5 Z M16.0301646,15.4409898 L16.1301576,15.4680204 C16.4378894,15.5773396 16.6130605,15.893699 16.5539199,16.2052811 L16.5290466,16.2984006 C16.4490611,16.5271832 16.2505208,16.6901523 16.0165602,16.728059 L15.9143651,16.7364751 C15.7026907,16.7353872 15.5044176,16.6327185 15.3813827,16.4604891 C15.2788536,16.3169646 15.2389701,16.139688 15.2676567,15.9685161 L15.2931445,15.8668644 C15.3508594,15.7027079 15.4716345,15.5683252 15.6287315,15.4934671 C15.7544091,15.4335806 15.8950386,15.4157422 16.0301646,15.4409898 Z M8.49241319,7.88213829 C8.85356129,7.88213829 9.14632966,8.17487361 9.14632966,8.53598092 L9.14632966,13.035072 L12.212544,14.102797 C12.5145107,14.2072958 12.6967222,14.5146993 12.6434284,14.829729 C12.5901346,15.1447587 12.3169457,15.3751392 11.9974055,15.3745222 C11.9243588,15.3745222 11.851844,15.3620987 11.7829209,15.3379057 L8.27727467,14.1171816 C8.01461684,14.0256832 7.83858849,13.7780647 7.83849672,13.4999541 L7.83849672,8.53598092 C7.83849672,8.17487361 8.1312651,7.88213829 8.49241319,7.88213829 Z M16.3590283,12.9834185 C16.5324691,12.9868522 16.6974378,13.0590544 16.8176256,13.1841337 C16.9137759,13.2841972 16.9749621,13.4115411 16.9937968,13.5472671 L16.9998665,13.6503379 C16.9927444,14.0063282 16.7020517,14.2911749 16.34595,14.2911037 L16.3328717,14.2911037 C16.1602472,14.288695 15.9956727,14.2177185 15.875451,14.0938304 C15.7552292,13.9699424 15.6892378,13.8033217 15.6920335,13.6307227 C15.6954676,13.4507631 15.767678,13.285813 15.8927715,13.1656387 C15.9928462,13.0694993 16.1202046,13.00832 16.2559459,12.9894874 L16.3590283,12.9834185 Z M16.591418,10.8994344 L16.6271341,10.9891984 C16.6779474,11.1556736 16.6602791,11.3355359 16.578043,11.4889442 C16.512254,11.6116709 16.4094861,11.7093627 16.2856186,11.7690575 L16.18901,11.8065017 L16.0952335,11.8271273 L15.9993743,11.8326554 C15.7123359,11.8343933 15.4577223,11.6487585 15.3716145,11.3749656 C15.3208012,11.2084905 15.3384694,11.0286282 15.4207056,10.8752198 C15.4864945,10.7524932 15.5892625,10.6548014 15.7131299,10.5951065 L15.8097385,10.5576623 C16.1230656,10.4630839 16.4526026,10.6134237 16.591418,10.8994344 Z M15.0072436,8.31249845 C15.1437062,8.33507605 15.2684733,8.40039942 15.3642963,8.49770832 L15.4304669,8.57651916 C15.6196636,8.84161244 15.584149,9.19942327 15.3612535,9.42274938 L15.2800661,9.49189884 C15.1961166,9.54890926 15.100861,9.58620802 15.0013977,9.60159644 L14.9007946,9.60959998 C14.7234816,9.61054474 14.5550215,9.5395623 14.4323766,9.41557685 L14.3645831,9.33497661 C14.1785698,9.06990643 14.216777,8.71442056 14.4402309,8.49421663 L14.521523,8.42613536 C14.6618706,8.32517059 14.8366653,8.28427645 15.0072436,8.31249845 Z M13.4595207,6.60599432 L13.5471875,6.66076027 C13.6878335,6.76317002 13.7815467,6.91768481 13.8073559,7.08972727 C13.8280034,7.22736123 13.8038133,7.3670204 13.7398555,7.48863036 L13.68451,7.57613994 C13.5815975,7.7133411 13.4298529,7.80349816 13.2630184,7.82973937 L13.1613768,7.83767921 C12.9148508,7.8383177 12.6889166,7.70027296 12.5770117,7.4806326 C12.4810932,7.29236944 12.4829264,7.07158786 12.5770041,6.88701694 L12.6317044,6.79806722 C12.7347842,6.65832267 12.889224,6.56531568 13.0609643,6.53955754 C13.1983566,6.51895102 13.3377929,6.54273787 13.4595207,6.60599432 Z M11.0664045,5.40184579 L11.1603924,5.42499771 C11.4707599,5.52854853 11.6530896,5.84134066 11.6014994,6.15494288 L11.5788989,6.24883941 C11.5012642,6.48346735 11.3001336,6.65181607 11.0618318,6.69119368 L10.9576783,6.69999083 C10.7483221,6.69983666 10.5516968,6.59946149 10.4287903,6.429999 C10.3263682,6.28878026 10.2854599,6.11381367 10.312227,5.94424053 L10.3364576,5.84345699 C10.4384245,5.53175324 10.7524063,5.3486596 11.0664045,5.40184579 Z" id="ico-clock"></path>
                            </g>
                        </g>
                    </g>
                </g>
            </g>
        </g>
    </g>
</svg>