<?xml version="1.0" encoding="UTF-8"?>
<svg width="15px" height="15px" viewBox="0 0 15 15" version="1.1" xmlns="http://www.w3.org/2000/svg" xmlns:xlink="http://www.w3.org/1999/xlink">
    <title>07C10F2C-986F-4BDA-8E0A-355773BCC777</title>
    <g id="Page-1" stroke="none" stroke-width="1" fill="none" fill-rule="evenodd">
        <g id="04d-Items-bulk-add-tag" transform="translate(-765.000000, -583.000000)" fill="#B3C4CE" fill-rule="nonzero">
            <g id="Page" transform="translate(10.000000, 10.000000)">
                <g id="Items" transform="translate(278.000000, 270.000000)">
                    <g id="item/standard" transform="translate(0.000000, 270.000000)">
                        <g id="Information" transform="translate(477.000000, 27.000000)">
                            <g id="ico-type" transform="translate(0.000000, 6.000000)">
                                <path d="M14.3435193,2.76945574 L6.5399338,2.76945574 C6.17736955,2.76945574 5.88345315,2.46692529 5.88345315,2.09373506 C5.88345315,1.72054484 6.17736955,1.41801439 6.5399338,1.41801439 L14.3435193,1.41801439 C14.7060836,1.41801439 15,1.72054484 15,2.09373506 C15,2.46692529 14.7060836,2.76945574 14.3435193,2.76945574 Z" id="Path"></path>
                                <path d="M1.67869455,4.18846964 L1.67212975,4.18846964 C1.46827447,4.18593959 1.27713023,4.08606839 1.15482299,3.91818089 L0.132682612,2.5295749 C-0.00886104455,2.3364455 -0.0395531705,2.08026083 0.0521676605,1.85752316 C0.143888492,1.6347855 0.344087703,1.47933399 0.577352189,1.44972573 C0.810616674,1.42011747 1.04150801,1.52085064 1.18305166,1.71398004 L1.69248065,2.40659374 L3.33499525,0.257126262 C3.4802915,0.0676180325 3.71277352,-0.0277083749 3.94486758,0.00705557579 C4.17696163,0.0418195265 4.37340711,0.201392364 4.4602049,0.425664543 C4.54700269,0.649936721 4.51096614,0.904835961 4.36566987,1.09434418 L2.19403187,3.93237103 C2.06934164,4.09436469 1.87948406,4.18871487 1.67869455,4.18846964 L1.67869455,4.18846964 Z" id="Path"></path>
                                <path d="M14.3435193,8.17522116 L6.5399338,8.17522116 C6.17736955,8.17522116 5.88345315,7.87269071 5.88345315,7.49950048 C5.88345315,7.12631026 6.17736955,6.8237798 6.5399338,6.8237798 L14.3435193,6.8237798 C14.7060836,6.8237798 15,7.12631026 15,7.49950048 C15,7.87269071 14.7060836,8.17522116 14.3435193,8.17522116 Z" id="Path"></path>
                                <path d="M14.3435193,13.5809866 L6.5399338,13.5809866 C6.17736955,13.5809866 5.88345315,13.2784561 5.88345315,12.9052659 C5.88345315,12.5320757 6.17736955,12.2295452 6.5399338,12.2295452 L14.3435193,12.2295452 C14.7060836,12.2295452 15,12.5320757 15,12.9052659 C15,13.2784561 14.7060836,13.5809866 14.3435193,13.5809866 Z" id="Path"></path>
                                <path d="M2.25311513,9.59423458 C1.12916594,9.59423458 0.218025097,8.65639018 0.218025097,7.49950048 C0.218025097,6.34261078 1.12916594,5.40476638 2.25311513,5.40476638 C3.37706431,5.40476638 4.28820516,6.34261078 4.28820516,7.49950048 C4.28820516,8.65639018 3.37706431,9.59423458 2.25311513,9.59423458 Z M2.25311513,6.75620743 C1.96098173,6.75593438 1.69746598,6.93685842 1.5854873,7.21458614 C1.47350862,7.49231385 1.53512874,7.81212808 1.74160438,8.02484845 C1.94808001,8.23756882 2.25873189,8.30128573 2.5286535,8.18627785 C2.79857512,8.07126996 2.97458737,7.8001958 2.97458737,7.49950048 C2.97458737,7.08925497 2.65167941,6.75658069 2.25311513,6.75620743 L2.25311513,6.75620743 Z" id="Shape"></path>
                                <path d="M2.25311513,15 C1.12916594,15 0.218025097,14.0621556 0.218025097,12.9052659 C0.218025097,11.7483762 1.12916594,10.8105318 2.25311513,10.8105318 C3.37706431,10.8105318 4.28820516,11.7483762 4.28820516,12.9052659 C4.28820516,14.0621556 3.37706431,15 2.25311513,15 Z M2.25311513,12.1619728 C1.96098173,12.1616998 1.69746598,12.3426238 1.5854873,12.6203516 C1.47350862,12.8980793 1.53512874,13.2178935 1.74160438,13.4306139 C1.94808001,13.6433342 2.25873189,13.7070512 2.5286535,13.5920433 C2.79857512,13.4770354 2.97458737,13.2059612 2.97458737,12.9052659 C2.97458737,12.4950204 2.65167941,12.1623461 2.25311513,12.1619728 L2.25311513,12.1619728 Z" id="Shape"></path>
                            </g>
                        </g>
                    </g>
                </g>
            </g>
        </g>
    </g>
</svg>