<?xml version="1.0" encoding="UTF-8"?>
<svg width="12px" height="14px" viewBox="0 0 12 14" version="1.1" xmlns="http://www.w3.org/2000/svg" xmlns:xlink="http://www.w3.org/1999/xlink">
    <title>12482527-86D7-40B4-A2CD-679B18F1419A</title>
    <g id="Page-1" stroke="none" stroke-width="1" fill="none" fill-rule="evenodd" opacity="0.5" stroke-linecap="round" stroke-linejoin="round">
        <g id="04d-Items-bulk-add-tag" transform="translate(-38.000000, -493.000000)" stroke="#FFFFFF" stroke-width="0.75">
            <g id="Page" transform="translate(10.000000, 10.000000)">
                <g id="Additonal" transform="translate(28.000000, 446.000000)">
                    <g id="ico-upload" transform="translate(0.000000, 37.000000)">
                        <path d="M0.461538462,2.53846154 L0.461538462,1.03846154 C0.461538462,0.210034414 1.15033115,-0.461538462 2,-0.461538462 L10,-0.461538462 C10.8496688,-0.461538462 11.5384615,0.210034414 11.5384615,1.03846154 L11.5384615,10.0384615 C11.5384615,10.8668887 10.8496688,11.5384615 10,11.5384615 L2,11.5384615 C1.15033115,11.5384615 0.461538462,10.8668887 0.461538462,10.0384615 L0.461538462,8.53846154" id="Path" transform="translate(6.000000, 5.538462) rotate(-90.000000) translate(-6.000000, -5.538462) "></path>
                        <polyline id="Path" transform="translate(6.000000, 3.846154) rotate(-90.000000) translate(-6.000000, -3.846154) " points="4.46153846 6.84615385 7.53846154 3.84615385 4.46153846 0.846153846"></polyline>
                        <line x1="0.492788462" y1="8.46153846" x2="11.5697115" y2="8.46153846" id="Path" transform="translate(6.031250, 8.461538) rotate(-90.000000) translate(-6.031250, -8.461538) "></line>
                    </g>
                </g>
            </g>
        </g>
    </g>
</svg>