<?xml version="1.0" encoding="UTF-8"?>
<svg width="24px" height="27.7px" viewBox="0 0 24 27.7" version="1.1" xmlns="http://www.w3.org/2000/svg" xmlns:xlink="http://www.w3.org/1999/xlink">
    <title>50F22B90-4816-49B4-BE63-8CE9042660D6</title>
    <g id="Page-1" stroke="none" stroke-width="1" fill="none" fill-rule="evenodd" stroke-linecap="round" stroke-linejoin="round">
        <g id="04d-Items-bulk-add-tag" transform="translate(-316.000000, -486.000000)" stroke="#FFFFFF" stroke-width="2">
            <g id="Page" transform="translate(10.000000, 10.000000)">
                <g id="Items" transform="translate(278.000000, 270.000000)">
                    <g id="item/standard" transform="translate(0.000000, 180.000000)">
                        <g id="Icon" transform="translate(7.000000, 7.000000)">
                            <g id="ico-item" transform="translate(21.000000, 19.000000)">
                                <polyline id="Path" points="3.9 4.6 0 6.9 0 11.4"></polyline>
                                <polyline id="Path" points="0 16.3 0 20.8 3.9 23"></polyline>
                                <polyline id="Path" points="8.1 25.4 12 27.7 15.9 25.4"></polyline>
                                <polyline id="Path" points="20.1 23 24 20.8 24 16.3"></polyline>
                                <polyline id="Path" points="24 11.4 24 6.9 20.1 4.6"></polyline>
                                <polyline id="Path" points="15.9 2.2 12 0 8.1 2.2"></polyline>
                                <line x1="12" y1="27.7" x2="12" y2="23.2" id="Path"></line>
                                <polyline id="Path" points="12 18.1 12 13.6 15.9 11.4"></polyline>
                                <line x1="20.1" y1="9.1" x2="24" y2="6.9" id="Path"></line>
                                <line x1="12" y1="13.6" x2="8.1" y2="11.4" id="Path"></line>
                                <line x1="3.9" y1="9.1" x2="0" y2="6.9" id="Path"></line>
                            </g>
                        </g>
                    </g>
                </g>
            </g>
        </g>
    </g>
</svg>