<?xml version="1.0" encoding="UTF-8"?>
<svg width="12px" height="12px" viewBox="0 0 12 12" version="1.1" xmlns="http://www.w3.org/2000/svg" xmlns:xlink="http://www.w3.org/1999/xlink">
    <title>5A5126CC-2725-4829-8E16-D959829EEF66</title>
    <g id="Page-1" stroke="none" stroke-width="1" fill="none" fill-rule="evenodd" opacity="0.5" stroke-linecap="round" stroke-linejoin="round">
        <g id="04d-Items-bulk-add-tag" transform="translate(-39.000000, -275.000000)" stroke="#FFFFFF" stroke-width="0.75">
            <g id="Page" transform="translate(10.000000, 10.000000)">
                <g id="Account" transform="translate(29.000000, 156.000000)">
                    <g id="ico-account" transform="translate(0.000000, 109.000000)">
                        <path d="M6.18142942,4.21429907 C5.40535812,4.13979667 4.66483867,4.54737226 4.3313168,5.23258526 C3.99779494,5.91779827 4.14322569,6.73281873 4.69466076,7.26883109 C5.24609583,7.80484344 6.08456693,7.94620674 6.78949561,7.62201292 C7.49442429,7.29781911 7.91372707,6.57801074 7.83708101,5.82364486 C7.74915694,4.97273638 7.05682113,4.29976405 6.18142942,4.21429907 L6.18142942,4.21429907 Z M10.6263059,6 C10.6251269,6.19504379 10.6103828,6.38978694 10.5821744,6.5828972 L11.8862164,7.5771028 C12.003476,7.67158346 12.0333551,7.8345824 11.9568845,7.96261682 L10.7232221,10.0373832 C10.6458794,10.1641494 10.4859336,10.2184582 10.3442106,10.1660748 L9.04911028,9.65915888 C8.9040385,9.60301289 8.73965492,9.62144569 8.61154522,9.7082243 C8.41389089,9.84052639 8.20619406,9.95806001 7.99024321,10.0598131 C7.85236821,10.1249508 7.75696093,10.2525982 7.73583821,10.4001869 L7.54171738,11.7428972 C7.51542383,11.8891378 7.38635684,11.9968571 7.23366235,12 L4.76633765,12 C4.61634059,11.9974775 4.48821869,11.894142 4.45799418,11.7513084 L4.26416179,10.4105607 C4.24205421,10.261329 4.14462106,10.1327364 4.00456485,10.0679439 C3.78887233,9.96674134 3.58187726,9.84888689 3.38557037,9.71551402 C3.25788752,9.62916032 3.094043,9.61113662 2.94973595,9.66757009 L1.6549241,10.1742056 C1.51327074,10.2266389 1.35334578,10.1724554 1.27591257,10.0457944 L0.0422502248,7.97102804 C-0.0343456792,7.84301514 -0.0044512059,7.67993242 0.112918281,7.58551402 L1.21505151,6.74439252 C1.33772737,6.64973406 1.40284439,6.50119989 1.38811614,6.34962617 C1.37773226,6.23271028 1.37138656,6.11607477 1.37138656,5.99915888 C1.37138656,5.88224299 1.37744382,5.76728972 1.38811614,5.6528972 C1.40123221,5.50226338 1.33541496,5.35533887 1.21303242,5.26205607 L0.111476075,4.42093458 C-0.00392552277,4.3260822 -0.0327346518,4.1644424 0.0431155479,4.03738318 L1.2767779,1.96261682 C1.35412064,1.8358506 1.51406639,1.78154177 1.65578943,1.83392523 L2.95088972,2.34084112 C3.0959615,2.39698711 3.26034508,2.37855431 3.38845478,2.2917757 C3.58610911,2.15947361 3.79380594,2.04193999 4.00975679,1.94018692 C4.14763179,1.87504919 4.24303907,1.74740176 4.26416179,1.59981308 L4.45828262,0.257102804 C4.48457617,0.110862227 4.61364316,0.00314288772 4.76633765,0 L7.23366235,0 C7.38365941,0.00252251061 7.51178131,0.105858047 7.54200582,0.248691589 L7.73583821,1.58943925 C7.75794579,1.73867103 7.85537894,1.8672636 7.99543515,1.93205607 C8.21112767,2.03325866 8.41812274,2.15111311 8.61442963,2.28448598 C8.74211248,2.37083968 8.905957,2.38886338 9.05026405,2.33242991 L10.3450759,1.82579439 C10.4867293,1.77336113 10.6466542,1.8275446 10.7240874,1.95420561 L11.9577498,4.02897196 C12.0343457,4.15698486 12.0044512,4.32006758 11.8870817,4.41448598 L10.7849485,5.25560748 C10.6617333,5.34996203 10.5960517,5.4985458 10.6104417,5.65037383 C10.6199602,5.7664486 10.6263059,5.88308411 10.6263059,6 Z" id="Shape"></path>
                    </g>
                </g>
            </g>
        </g>
    </g>
</svg>