<?xml version="1.0" encoding="UTF-8"?>
<svg width="10px" height="12px" viewBox="0 0 10 12" version="1.1" xmlns="http://www.w3.org/2000/svg" xmlns:xlink="http://www.w3.org/1999/xlink">
    <title>54913BF3-C878-4B90-950E-CC3DB128C80B</title>
    <g id="Page-1" stroke="none" stroke-width="1" fill="none" fill-rule="evenodd" opacity="0.5" stroke-linecap="round" stroke-linejoin="round">
        <g id="04d-Items-bulk-add-tag" transform="translate(-39.000000, -529.000000)" stroke="#FFFFFF" stroke-width="0.75">
            <g id="Page" transform="translate(10.000000, 10.000000)">
                <g id="Additonal" transform="translate(28.000000, 446.000000)">
                    <g id="ico-notify" transform="translate(1.000000, 73.000000)">
                        <path d="M9.87347924,8.75278846 C9.14455192,7.84615385 8.62993151,7.38461538 8.62993151,4.88509615 C8.62993151,2.59615385 7.47977049,1.78067308 6.53313007,1.38461538 C6.40738443,1.33211538 6.2890189,1.21153846 6.25069912,1.08028846 C6.08464675,0.505961538 5.61913242,0 5.00033898,0 C4.38154554,0 3.91574736,0.50625 3.75139809,1.08086538 C3.71307832,1.21355769 3.59471278,1.33211538 3.46896714,1.38461538 C2.52119132,1.78125 1.3721657,2.59384615 1.3721657,4.88509615 C1.37074645,7.38461538 0.856126038,7.84615385 0.12719872,8.75278846 C-0.174817894,9.12836538 0.0897304938,9.69230769 0.617975719,9.69230769 L9.38554074,9.69230769 C9.91094747,9.69230769 10.1737928,9.12663462 9.87347924,8.75278846 Z" id="Path"></path>
                        <path d="M6.81698027,9.69230769 L6.81698027,10.1538462 C6.81698027,11.1734488 6.00364226,12 5.00033898,12 C3.9970357,12 3.18369769,11.1734488 3.18369769,10.1538462 L3.18369769,9.69230769" id="Path"></path>
                    </g>
                </g>
            </g>
        </g>
    </g>
</svg>