<?xml version="1.0" encoding="UTF-8"?>
<svg width="15.9814695px" height="17px" viewBox="0 0 15.9814695 17" version="1.1" xmlns="http://www.w3.org/2000/svg" xmlns:xlink="http://www.w3.org/1999/xlink">
    <title>35AF11B3-B2A8-4FD5-BCBE-2503DBCF45B4</title>
    <g id="Page-1" stroke="none" stroke-width="1" fill="none" fill-rule="evenodd" stroke-linecap="round" stroke-linejoin="round">
        <g id="04d-Items-bulk-add-tag" transform="translate(-868.000000, -238.000000)" stroke="#262262">
            <g id="Page" transform="translate(10.000000, 10.000000)">
                <g id="Bulk-select-tools" transform="translate(278.000000, 214.000000)">
                    <g id="bulk-edit" transform="translate(569.000000, 7.000000)">
                        <g id="ico-bult-edit" transform="translate(11.000000, 7.000000)">
                            <path d="M5.98656606,3.86184569 L13.8990387,3.75508291 C15.1143475,3.73868478 16.1128433,4.71059396 16.1292415,5.92590283 C16.1295085,5.94569622 16.1295085,5.96549232 16.1292415,5.98528571 C16.1122632,7.24358641 15.0963321,8.2595176 13.8380314,8.27649582 L5.92555876,8.3832586 L5.92555876,8.3832586 L3.69535595,6.1530558 L5.98656606,3.86184569 Z" id="Rectangle" transform="translate(9.927551, 6.053919) rotate(-45.000000) translate(-9.927551, -6.053919) "></path>
                            <line x1="11.9040821" y1="1.81552023" x2="11.8430748" y2="6.33693314" id="Path-6" transform="translate(11.873578, 4.076227) rotate(-45.000000) translate(-11.873578, -4.076227) "></line>
                            <path d="M3.85804515,10.6991722 L1.43200632,10.6991722 C0.641131067,10.6991722 -9.68542844e-17,11.3403033 0,12.1311785 C9.68542844e-17,12.9220538 0.641131067,13.5631848 1.43200632,13.5631848 L13.5805411,13.5631848 C14.5295914,13.5631848 15.2989486,14.3325421 15.2989486,15.2815924 C15.2989486,16.2306427 14.5295914,17 13.5805411,17 L4.93939067,17 L4.93939067,17" id="Path-7"></path>
                        </g>
                    </g>
                </g>
            </g>
        </g>
    </g>
</svg>