<?xml version="1.0" encoding="UTF-8"?>
<svg width="17px" height="17px" viewBox="0 0 17 17" version="1.1" xmlns="http://www.w3.org/2000/svg" xmlns:xlink="http://www.w3.org/1999/xlink">
    <title>D42BBEB8-05EE-4BE7-957D-A70937ACC488</title>
    <g id="Page-1" stroke="none" stroke-width="1" fill="none" fill-rule="evenodd">
        <g id="04c-Items-bulk-selected" transform="translate(-1081.000000, -47.000000)" fill="#FFFFFF" fill-rule="nonzero">
            <g id="Header" transform="translate(288.000000, 36.000000)">
                <g id="btn/icon" transform="translate(784.000000, 2.000000)">
                    <path d="M17.5,9 C22.1944204,9 26,12.8055796 26,17.5 C25.9945953,22.1921798 22.1921798,25.9945953 17.5,26 C12.8055796,26 9,22.1944204 9,17.5 C9,12.8055796 12.8055796,9 17.5,9 Z M17.5,10.3076923 C13.5277981,10.3076923 10.3076923,13.5277981 10.3076923,17.5 C10.3076923,21.4722019 13.5277981,24.6923077 17.5,24.6923077 C21.4722019,24.6923077 24.6923077,21.4722019 24.6923077,17.5 C24.6879834,13.5295907 21.4704093,10.3120166 17.5,10.3076923 Z M17.4915,13.7959615 C17.8526093,13.7959615 18.1453462,14.0886984 18.1453462,14.4498077 L18.145,16.846 L20.5410385,16.8461538 C20.9021477,16.8461538 21.1948846,17.1388907 21.1948846,17.5 C21.1948846,17.8611093 20.9021477,18.1538462 20.5410385,18.1538462 L18.145,18.153 L18.1453462,20.5501923 C18.1453462,20.9113016 17.8526093,21.2040385 17.4915,21.2040385 C17.1303907,21.2040385 16.8376538,20.9113016 16.8376538,20.5501923 L16.837,18.153 L14.4419615,18.1538462 C14.0808523,18.1538462 13.7881154,17.8611093 13.7881154,17.5 C13.7881154,17.1388907 14.0808523,16.8461538 14.4419615,16.8461538 L16.837,16.846 L16.8376538,14.4498077 C16.8376538,14.0886984 17.1303907,13.7959615 17.4915,13.7959615 Z" id="ico-add"></path>
                </g>
            </g>
        </g>
    </g>
</svg>