<?xml version="1.0" encoding="UTF-8"?>
<svg width="13px" height="13px" viewBox="0 0 13 13" version="1.1" xmlns="http://www.w3.org/2000/svg" xmlns:xlink="http://www.w3.org/1999/xlink">
    <title>2C9A24BB-5942-456D-9B0B-2D85828B7F07</title>
    <g id="Page-1" stroke="none" stroke-width="1" fill="none" fill-rule="evenodd" opacity="0.5" stroke-linecap="round" stroke-linejoin="round">
        <g id="04c-Items-bulk-selected" transform="translate(-39.000000, -240.000000)" stroke="#FFFFFF" stroke-width="0.75">
            <g id="Nav" transform="translate(10.000000, 10.000000)">
                <g id="Account" transform="translate(29.000000, 156.000000)">
                    <g id="ico-ai" transform="translate(0.000000, 74.000000)">
                        <path d="M12.931519,0.176139586 C12.9206675,0.123734226 12.8804426,0.0823783265 12.8283912,0.0701121202 C11.1289691,-0.345865845 7.20323541,1.13632932 5.07411396,3.26563608 C4.6946575,3.64228603 4.34865637,4.05125649 4.04002283,4.48792321 C3.38375466,4.42849779 2.72748649,4.47854025 2.16872101,4.72249725 C0.590864826,5.41683641 0.131789616,7.23025013 0.00366106803,8.00872317 C-0.0104096306,8.09518161 0.0165390004,8.18326812 0.0765643475,8.24702082 C0.136589695,8.31077352 0.222849232,8.34292499 0.309919548,8.33399918 L2.8434272,8.05563798 C2.84517991,8.24688486 2.85665339,8.43791866 2.87780315,8.62799864 C2.89102511,8.7593779 2.94959557,8.8820345 3.04343273,8.97485545 L4.02439739,9.956626 C4.11722263,10.0506055 4.23990005,10.1092293 4.371282,10.1223917 C4.56006405,10.1434629 4.74979178,10.1549457 4.93973524,10.1567959 L4.66191505,12.6901955 C4.65312431,12.777222 4.68525631,12.8633932 4.74886561,12.9233785 C4.8124749,12.9833637 4.90033232,13.0103457 4.98661154,12.9963928 C5.76475808,12.8712866 7.58043335,12.4118343 8.27013995,10.8329946 C8.5138967,10.2731446 8.56389808,9.61977768 8.50764653,8.96609802 C8.94524163,8.65749615 9.35504217,8.31119761 9.73236794,7.93115736 C11.8693021,5.80435273 13.3409053,1.96171718 12.931519,0.176139586 Z M7.83294034,5.17600706 C7.4512378,4.79407847 7.33701513,4.21962857 7.54353883,3.72054579 C7.75006253,3.221463 8.23665689,2.89604376 8.77640397,2.89604376 C9.31615105,2.89604376 9.80274541,3.221463 10.0092691,3.72054579 C10.2157928,4.21962857 10.1015701,4.79407847 9.71986759,5.17600706 C9.46982924,5.42678099 9.13038637,5.56770897 8.77640397,5.56770897 C8.42242157,5.56770897 8.08297869,5.42678099 7.83294034,5.17600706 L7.83294034,5.17600706 Z" id="Shape"></path>
                        <path d="M1.92590179,9.50249066 C1.61436622,9.54076486 1.32453758,9.68211047 1.10244149,9.90408142 C0.551801245,10.4570506 0.4996123,12.5050384 0.4996123,12.5050384 C0.4996123,12.5050384 2.54716899,12.4528066 3.09812175,11.9010884 C3.32080837,11.6791612 3.4622775,11.3886082 3.49969537,11.0763261" id="Path"></path>
                    </g>
                </g>
            </g>
        </g>
    </g>
</svg>