<?xml version="1.0" encoding="UTF-8"?>
<svg width="188px" height="30.3464567px" viewBox="0 0 188 30.3464567" version="1.1" xmlns="http://www.w3.org/2000/svg" xmlns:xlink="http://www.w3.org/1999/xlink">
    <title>2A8217C7-DFA9-4F24-A043-E1507D1A064E</title>
    <g id="Page-1" stroke="none" stroke-width="1" fill="none" fill-rule="evenodd">
        <g id="04c-Items-bulk-selected" transform="translate(-40.000000, -40.000000)">
            <g id="Nav" transform="translate(10.000000, 10.000000)">
                <g id="logo-ttd-line" transform="translate(30.000000, 30.000000)">
                    <polygon id="Fill-1" fill="#FFFFFF" points="6.81540991e-15 30.3464567 64.1828163 30.3464567 64.1828163 0 6.81540991e-15 0"></polygon>
                    <polygon id="Fill-9" fill="#A6B0B5" points="67.5188571 30.3464567 144.412776 30.3464567 144.412776 0 67.5188571 0"></polygon>
                    <polygon id="Fill-16" fill="#2E5E98" points="147.748816 30.3464567 186.824041 30.3464567 186.824041 0 147.748816 0"></polygon>
                    <path d="M13.5582531,10.1901505 L13.5582531,21.7938769 L11.5804163,21.7938769 L11.5804163,10.1901505 L7.91249796,10.1901505 L7.91249796,8.39781289 L17.2779673,8.39781289 L17.2779673,10.1901505 L13.5582531,10.1901505 Z M27.2097388,17.0869518 L24.7887592,17.0869518 C24.1173306,17.0869518 23.5744327,17.2462707 23.1677388,17.5649085 C22.7591265,17.8854429 22.5519429,18.3065 22.5519429,18.8280797 C22.5519429,19.3117264 22.7169224,19.7100236 23.0430449,20.0267648 C23.3691673,20.3416093 23.7873714,20.4990315 24.2938204,20.4990315 C25.1110449,20.4990315 25.8035755,20.2353967 26.3675755,19.7043337 C26.9296571,19.1751673 27.2097388,18.5227185 27.2097388,17.7488839 L27.2097388,17.0869518 Z M27.2097388,15.5885955 L27.2097388,14.7445846 C27.2097388,13.7109085 26.5728408,13.1950187 25.2952082,13.1950187 C24.0847184,13.1950187 23.3461469,13.5781427 23.0794939,14.3462874 L21.0997388,14.3462874 C21.189902,12.6013661 22.5922286,11.7289055 25.3048,11.7289055 C26.6514939,11.7289055 27.6164327,12.0134035 28.1996163,12.5842963 C28.7828,13.155189 29.0763102,14.0959291 29.0763102,15.4065167 L29.0763102,21.7925492 L27.2097388,21.7925492 L27.2097388,20.8043927 C26.3714122,21.580124 25.3872898,21.9670413 24.2535347,21.9670413 C23.1619837,21.9670413 22.2872082,21.6920266 21.6311265,21.141997 C20.9750449,20.5919675 20.6470041,19.8617559 20.6470041,18.9513622 C20.6470041,17.9252726 21.0479429,17.1097116 21.847902,16.5008858 C22.6478612,15.8939567 23.7259837,15.5885955 25.0784327,15.5885955 L27.2097388,15.5885955 Z M37.5453265,7.37855128 L37.5453265,18.1875798 C37.5453265,19.517134 38.2762245,20.1828594 39.7399388,20.1828594 L41.3264286,20.1828594 L41.3264286,21.7931182 L39.1932041,21.7931182 C37.9635306,21.7931182 37.0695714,21.4668938 36.5151633,20.814445 C35.9569184,20.1638928 35.6787551,19.1207334 35.6787551,17.6887599 L35.6787551,7.37855128 L37.5453265,7.37855128 Z M49.0555306,7.37855128 L49.0555306,15.4772619 L52.9191224,11.90207 L55.5683878,11.90207 L50.785898,16.1809204 L56.0211224,21.7931182 L53.402551,21.7931182 L49.0555306,17.1064873 L49.0555306,21.7931182 L47.1889592,21.7931182 L47.1889592,7.37855128 L49.0555306,7.37855128 Z M81.0776857,10.1901505 L81.0776857,21.7938769 L79.099849,21.7938769 L79.099849,10.1901505 L75.4319306,10.1901505 L75.4319306,8.39781289 L84.7974,8.39781289 L84.7974,10.1901505 L81.0776857,10.1901505 Z M90.7537388,7.37855128 L90.7537388,12.7365975 C91.5498612,12.0651822 92.5071265,11.7275779 93.6274531,11.7275779 C94.561698,11.7275779 95.3348,12.0310424 95.9467592,12.6341782 C96.3170041,13.007819 96.5702286,13.4080129 96.708351,13.8328633 C96.8464735,14.255817 96.9136163,14.8494696 96.9136163,15.6100277 L96.9136163,21.7931182 L95.0489633,21.7931182 L95.0489633,15.3957058 C95.0489633,14.0851182 94.4389224,13.4288761 93.2150041,13.4288761 C92.5013714,13.4288761 91.9085959,13.6507845 91.4328408,14.0927048 C91.1661878,14.3430631 90.9839429,14.6142845 90.8918612,14.9063692 C90.7978612,15.1984538 90.7537388,15.6365808 90.7537388,16.2207501 L90.7537388,21.7931182 L88.8871673,21.7931182 L88.8871673,7.37855128 L90.7537388,7.37855128 Z M104.435918,9.85311516 L107.259755,9.85311516 L107.259755,7.37798228 L104.435918,7.37798228 L104.435918,9.85311516 Z M102.064816,11.901501 L107.257837,11.901501 L107.257837,21.7925492 L105.28,21.7925492 L105.28,13.7659114 L102.064816,13.7659114 L102.064816,11.901501 Z M113.781629,11.9016906 L115.646282,11.9016906 L115.646282,13.0320962 C116.519139,12.1634288 117.606853,11.7290952 118.913261,11.7290952 C120.047016,11.7290952 120.950567,12.0591129 121.627751,12.7172517 C122.303016,13.3753905 122.642567,14.2554377 122.642567,15.3554968 L122.642567,21.7927389 L120.777914,21.7927389 L120.777914,15.2132477 C120.777914,14.6271818 120.595669,14.1719849 120.23118,13.8419672 C119.868608,13.5138462 119.354486,13.3488373 118.696486,13.3488373 C117.783343,13.3488373 117.04669,13.629542 116.486527,14.1928481 C115.926363,14.7580509 115.646282,15.4977458 115.646282,16.4138294 L115.646282,21.7927389 L113.781629,21.7927389 L113.781629,11.9016906 Z M129.28031,7.37855128 L129.28031,15.4772619 L133.143902,11.90207 L135.793167,11.90207 L131.010678,16.1809204 L136.245902,21.7931182 L133.627331,21.7931182 L129.28031,17.1064873 L129.28031,21.7931182 L127.413739,21.7931182 L127.413739,7.37855128 L129.28031,7.37855128 Z M158.784608,19.9901594 C160.096771,19.9901594 161.151873,19.5634123 161.953751,18.7118149 C162.751792,17.8583208 163.152731,16.7336052 163.152731,15.3338749 C163.152731,13.9625944 162.71918,12.7639094 161.846322,11.7378198 C160.973465,10.7136269 159.952894,10.1996338 158.784608,10.1996338 L158.784608,19.9901594 Z M156.806771,21.7938769 L156.806771,8.39781289 L158.249384,8.39781289 C160.096771,8.39781289 161.654486,9.00284537 162.928282,10.2110137 C163.620812,10.8767391 164.165629,11.6638503 164.555057,12.574244 C164.948322,13.4846377 165.142078,14.4139979 165.142078,15.366118 C165.142078,17.2457017 164.480241,18.8332007 163.152731,20.1229251 C162.007465,21.2362607 160.455506,21.7938769 158.506445,21.7938769 L156.806771,21.7938769 Z M173.447841,13.1648619 C172.500167,13.1648619 171.750086,13.4948796 171.199514,14.1530184 C170.650861,14.8111572 170.374616,15.7006877 170.374616,16.8216099 C170.374616,17.9633954 170.645106,18.8662025 171.180331,19.5319279 C171.717473,20.1976532 172.444535,20.5295676 173.365351,20.5295676 C174.278494,20.5295676 175.005555,20.2033432 175.544616,19.552791 C176.083678,18.9003422 176.352249,18.020295 176.352249,16.914546 C176.352249,15.7386208 176.097106,14.8206405 175.584902,14.1587084 C175.074616,13.4948796 174.360984,13.1648619 173.447841,13.1648619 M173.332739,11.7290952 C174.932657,11.7290952 176.148902,12.2032586 176.981473,13.1553786 C177.359392,13.5972989 177.666331,14.1530184 177.90229,14.8244338 C178.140167,15.4977458 178.259106,16.1634712 178.259106,16.8216099 C178.259106,18.3161729 177.798698,19.5471011 176.877882,20.5143944 C175.958984,21.4816877 174.784943,21.967231 173.365351,21.967231 C171.893963,21.967231 170.710331,21.4949643 169.814453,20.5504308 C168.918576,19.6058973 168.469678,18.359796 168.469678,16.8121267 C168.469678,15.2834239 168.914739,14.0543924 169.804861,13.1250322 C170.693065,12.1937753 171.870943,11.7290952 173.332739,11.7290952" id="Combined-Shape" fill="#262262"></path>
                </g>
            </g>
        </g>
    </g>
</svg>