<?xml version="1.0" encoding="UTF-8"?>
<svg width="17px" height="22.0710678px" viewBox="0 0 17 22.0710678" version="1.1" xmlns="http://www.w3.org/2000/svg" xmlns:xlink="http://www.w3.org/1999/xlink">
    <title>93DED919-1570-4837-AA22-821BFCDFE9FB</title>
    <g id="Page-1" stroke="none" stroke-width="1" fill="none" fill-rule="evenodd">
        <g id="04c-Items-bulk-selected" transform="translate(-628.000000, -239.000000)" fill="#262262" fill-rule="nonzero">
            <g id="Bulk-select-tools" transform="translate(288.000000, 224.000000)">
                <g id="Unpublish" transform="translate(318.000000, 7.000000)">
                    <g id="ico-ui-function" transform="translate(22.000000, 8.000000)">
                        <path d="M16,13 C16,14.1045695 15.1045695,15 14,15 L10.25,15 L10.25,13.75 L14,13.75 C14.4142136,13.75 14.75,13.4142136 14.75,13 L14.75,5.25 L2.25,5.25 L2.25,13 C2.25,13.4142136 2.58578644,13.75 3,13.75 L7,13.75 L7,15 L3,15 C1.8954305,15 1,14.1045695 1,13 L1,2 C1,0.8954305 1.8954305,0 3,0 L14,0 C15.1045695,0 16,0.8954305 16,2 L16,13 Z M14,1.25 L3,1.25 C2.58578644,1.25 2.25,1.58578644 2.25,2 L2.25,4 L14.75,4 L14.75,2 C14.75,1.58578644 14.4142136,1.25 14,1.25 Z M9.2484374,11 L9.248,19.654 L11.7871842,17.1161165 L12.6710677,18 L8.5999999,22.0710678 L4.52893209,18 L5.41281557,17.1161165 L7.998,19.702 L7.9984374,11 L9.2484374,11 Z" id="Rectangle-18"></path>
                    </g>
                </g>
            </g>
        </g>
    </g>
</svg>