<?xml version="1.0" encoding="UTF-8"?>
<svg width="17px" height="19.0710678px" viewBox="0 0 17 19.0710678" version="1.1" xmlns="http://www.w3.org/2000/svg" xmlns:xlink="http://www.w3.org/1999/xlink">
    <title>17A944ED-3C93-4081-9B76-FC493B10D7C2</title>
    <g id="Page-1" stroke="none" stroke-width="1" fill="none" fill-rule="evenodd">
        <g id="04c-Items-bulk-selected" transform="translate(-563.000000, -239.000000)" fill="#262262" fill-rule="nonzero">
            <g id="Bulk-select-tools" transform="translate(288.000000, 224.000000)">
                <g id="Publish" transform="translate(253.000000, 7.000000)">
                    <g id="ico-ui-function" transform="translate(22.000000, 8.000000)">
                        <path d="M8.5999999,8 L12.6710677,12.0710678 L11.7871842,12.9549513 L9.2015624,10.3693295 L9.2015624,19.0710678 L7.9515624,19.0710678 L7.9515624,10.4162045 L5.41281557,12.9549513 L4.52893209,12.0710678 L8.5999999,8 Z M14,-1.77635684e-15 C15.1045695,-1.77635684e-15 16,0.8954305 16,2 L16,13 C16,14.1045695 15.1045695,15 14,15 L10.25,15 L10.25,13.75 L14,13.75 C14.4142136,13.75 14.75,13.4142136 14.75,13 L14.75,5.25 L2.25,5.25 L2.25,13 C2.25,13.4142136 2.58578644,13.75 3,13.75 L7,13.75 L7,15 L3,15 C1.8954305,15 1,14.1045695 1,13 L1,2 C1,0.8954305 1.8954305,-1.77635684e-15 3,-1.77635684e-15 L14,-1.77635684e-15 Z M14,1.25 L3,1.25 C2.58578644,1.25 2.25,1.58578644 2.25,2 L2.25,4 L14.75,4 L14.75,2 C14.75,1.58578644 14.4142136,1.25 14,1.25 Z" id="Combined-Shape"></path>
                    </g>
                </g>
            </g>
        </g>
    </g>
</svg>